<svg width="85" height="24" viewBox="0 0 85 24" fill="none" xmlns="http://www.w3.org/2000/svg">
<path d="M14.4795 13.632C14.0155 15.152 13.1915 16.304 12.0075 17.088C10.8235 17.856 9.40747 18.24 7.75947 18.24C6.20747 18.24 4.85547 17.912 3.70347 17.256C2.55147 16.6 1.66347 15.664 1.03947 14.448C0.431469 13.216 0.127469 11.76 0.127469 10.08C0.127469 8.4 0.431469 6.952 1.03947 5.736C1.66347 4.504 2.54347 3.56 3.67947 2.904C4.83147 2.248 6.17547 1.92 7.71147 1.92C9.35947 1.92 10.7515 2.264 11.8875 2.952C13.0395 3.64 13.8315 4.664 14.2635 6.024L11.2635 7.296C11.0075 6.352 10.6075 5.672 10.0635 5.256C9.51947 4.84 8.78347 4.632 7.85547 4.632C6.51147 4.632 5.45547 5.104 4.68747 6.048C3.93547 6.992 3.55947 8.336 3.55947 10.08C3.55947 11.824 3.92747 13.168 4.66347 14.112C5.39947 15.056 6.43947 15.528 7.78347 15.528C9.71947 15.528 10.9355 14.592 11.4315 12.72L14.4795 13.632ZM22.4863 5.76C24.4223 5.76 25.9263 6.312 26.9983 7.416C28.0863 8.52 28.6303 10.048 28.6303 12C28.6303 13.952 28.0863 15.48 26.9983 16.584C25.9263 17.688 24.4223 18.24 22.4863 18.24C20.5503 18.24 19.0383 17.688 17.9503 16.584C16.8783 15.48 16.3423 13.952 16.3423 12C16.3423 10.048 16.8783 8.52 17.9503 7.416C19.0383 6.312 20.5503 5.76 22.4863 5.76ZM22.4863 8.208C21.5583 8.208 20.8463 8.528 20.3503 9.168C19.8703 9.792 19.6303 10.736 19.6303 12C19.6303 13.264 19.8703 14.216 20.3503 14.856C20.8463 15.48 21.5583 15.792 22.4863 15.792C23.4143 15.792 24.1183 15.48 24.5983 14.856C25.0943 14.216 25.3423 13.264 25.3423 12C25.3423 10.736 25.0943 9.792 24.5983 9.168C24.1183 8.528 23.4143 8.208 22.4863 8.208ZM36.9707 5.76C38.9067 5.76 40.4107 6.312 41.4827 7.416C42.5707 8.52 43.1147 10.048 43.1147 12C43.1147 13.952 42.5707 15.48 41.4827 16.584C40.4107 17.688 38.9067 18.24 36.9707 18.24C35.0347 18.24 33.5227 17.688 32.4347 16.584C31.3627 15.48 30.8267 13.952 30.8267 12C30.8267 10.048 31.3627 8.52 32.4347 7.416C33.5227 6.312 35.0347 5.76 36.9707 5.76ZM36.9707 8.208C36.0427 8.208 35.3307 8.528 34.8347 9.168C34.3547 9.792 34.1147 10.736 34.1147 12C34.1147 13.264 34.3547 14.216 34.8347 14.856C35.3307 15.48 36.0427 15.792 36.9707 15.792C37.8987 15.792 38.6027 15.48 39.0827 14.856C39.5787 14.216 39.8267 13.264 39.8267 12C39.8267 10.736 39.5787 9.792 39.0827 9.168C38.6027 8.528 37.8987 8.208 36.9707 8.208ZM51.407 12.696L49.223 15.024V18H45.935V0.743999H49.223V11.472L54.431 6H58.151L53.639 10.704L58.439 18H54.719L51.407 12.696ZM64.8645 18.24C62.1925 18.24 60.3365 17.472 59.2965 15.936L61.2165 13.968C61.5365 14.656 61.9925 15.144 62.5845 15.432C63.1925 15.704 63.9365 15.84 64.8165 15.84C65.5205 15.84 66.0645 15.744 66.4485 15.552C66.8325 15.36 67.0245 15.096 67.0245 14.76C67.0245 14.488 66.8405 14.256 66.4725 14.064C66.1205 13.872 65.5045 13.688 64.6245 13.512C62.7845 13.144 61.4885 12.664 60.7365 12.072C60.0005 11.464 59.6325 10.648 59.6325 9.624C59.6325 8.952 59.8405 8.32 60.2565 7.728C60.6725 7.136 61.2885 6.664 62.1045 6.312C62.9205 5.944 63.8965 5.76 65.0325 5.76C66.3765 5.76 67.4645 5.968 68.2965 6.384C69.1285 6.784 69.8245 7.424 70.3845 8.304L68.3445 10.032C67.9925 9.392 67.5525 8.92 67.0245 8.616C66.5125 8.312 65.8645 8.16 65.0805 8.16C64.4245 8.16 63.8965 8.272 63.4965 8.496C63.1125 8.72 62.9205 8.992 62.9205 9.312C62.9205 9.648 63.1125 9.928 63.4965 10.152C63.8805 10.376 64.5605 10.584 65.5365 10.776C67.2805 11.128 68.5125 11.592 69.2325 12.168C69.9685 12.728 70.3365 13.512 70.3365 14.52C70.3365 15.64 69.8565 16.544 68.8965 17.232C67.9525 17.904 66.6085 18.24 64.8645 18.24ZM79.1612 18.744C78.5692 20.376 77.8812 21.52 77.0972 22.176C76.3292 22.832 75.2972 23.16 74.0012 23.16C72.7052 23.16 71.6892 22.848 70.9532 22.224L71.7692 19.896C72.0252 20.184 72.3052 20.376 72.6092 20.472C72.9292 20.584 73.3212 20.64 73.7852 20.64C74.2812 20.64 74.6812 20.536 74.9852 20.328C75.2892 20.12 75.5452 19.744 75.7532 19.2L76.1852 18.168L74.8652 15.048L71.1932 6H74.8412L77.0972 13.2L77.7452 15.6L78.4652 13.056L80.6732 6H84.0092L79.1612 18.744Z" fill="#1C0F13"/>
</svg>
